<svg height="36" width="148.5" xmlns="http://www.w3.org/2000/svg"><path d="M137.5 15.5c0 1.4-1.2 2.5-2.5 2.5h-10v-5.5c0-1.5 1.1-2.6 2.6-2.6h7.5c1.3 0 2.5 1.3 2.5 2.7v2.9zm3-3c0-3-2.5-5.5-5.5-5.5h-7.5c-3 0-5.5 2.5-5.5 5.6v11c0 3 2.6 5.6 5.6 5.6h13v-3h-12.8c-1.5 0-2.6-1.1-2.7-2.6v-2.5h10c3 0 5.5-2.5 5.5-5.5v-3h-.1zM94.9.4h-3v29h3m10 0h7.5c3 0 5.5-2.6 5.5-5.7V7h-3v16.6c0 1.6-1.1 2.8-2.5 2.8H105c-1.4 0-2.5-1.2-2.5-2.7V7h-3v16.6c0 3.2 2.5 5.7 5.6 5.7m-20.7-5.7c0 1.6-1.2 2.8-2.7 2.8h-7.3c-1.4 0-2.6-1.2-2.6-2.6v-14h9.8c1.6 0 2.8 1.2 2.8 2.7zm2.9-11c0-3-2.5-5.6-5.6-5.6H72V.3h-3v23.2c0 3.2 2.4 5.7 5.5 5.7h7.3c3.1 0 5.6-2.5 5.6-5.6V12.5zM51.6 26.3c-1.4 0-2.6-1.2-2.6-2.6V12.6c0-1.4 1.2-2.6 2.6-2.6h7.3c1.5 0 2.7 1.2 2.7 2.7v13.7zm13-13.7C64.5 9.5 62.1 7.1 59 7h-7.3c-3 0-5.5 2.5-5.5 5.6v11c0 3 2.5 5.6 5.5 5.6h10v1.2c0 1.5-1.2 2.7-2.6 2.7H47V36h11.8c3.2 0 5.6-2.5 5.6-5.5v-18zM139.8.2V1h1.4v3.9h.6v-4h1.4V0H140zm7.8 0l-1.2 3.2L145 .2h-.8v4.9h.7v-3l1 2.3h.6l1-2.3v3.1h1v-5h-1 .1zm-109 23.3c0 1.6-1.1 2.8-2.6 2.8h-7.4c-1.4-.1-2.6-1.3-2.5-2.7v-11c0-1.4 1.2-2.6 2.5-2.6H36c1.5 0 2.6 1.2 2.6 2.7zm3-11C41.7 9.5 39 7 36 7h-7.4c-3.1.1-5.5 2.5-5.5 5.6v11c0 3 2.5 5.6 5.5 5.6H36c3 0 5.6-2.5 5.6-5.6zM17.5 6.9c-3.1 0-5.6 2.5-5.6 5.6V29h3V12.5c0-1.4 1.2-2.6 2.7-2.6h3V7zm-12-4h3V0h-3C2.5 0 0 2.5 0 5.5V29h3V10h5.6V6.9H3V5.7C3 4 4.1 2.9 5.5 2.9" fill="#91d023"/></svg>